<svg width="16" height="8" viewBox="0 0 16 8" fill="none" xmlns="http://www.w3.org/2000/svg">
<path d="M15.9161 5.23622C15.9971 5.38167 16.0192 5.55435 15.9774 5.71654C15.9356 5.87874 15.8334 6.01727 15.693 6.10188C15.6003 6.1599 15.4938 6.19015 15.3854 6.18924C15.2765 6.19025 15.1693 6.16137 15.0747 6.10556C14.9801 6.04974 14.9016 5.969 14.8471 5.87157L13.4322 3.34604C12.6019 3.92282 11.6883 4.35977 10.7253 4.64057L11.1713 7.25346C11.1983 7.41965 11.161 7.59013 11.0676 7.72824C10.9741 7.86636 10.8319 7.96108 10.6715 7.99205H10.5638C10.419 7.99249 10.2787 7.94017 10.1676 7.84429C10.0565 7.74841 9.98167 7.61512 9.95633 7.46789L9.518 4.89471C9.01645 4.97194 8.51017 5.01175 8.00308 5.01384C7.49363 5.01409 6.98482 4.97693 6.48047 4.90266L6.04214 7.47583C6.0168 7.62307 5.94199 7.75635 5.83087 7.85223C5.71974 7.94811 5.57943 8.00043 5.43464 8H5.32698C5.16659 7.96903 5.02438 7.8743 4.93091 7.73619C4.83744 7.59807 4.80018 7.42759 4.82713 7.2614L5.28084 4.64057C4.31484 4.36158 3.39837 3.92453 2.56628 3.34604L1.14364 5.88745C1.08868 5.98266 1.0111 6.06181 0.918251 6.1174C0.825397 6.17299 0.720341 6.20319 0.61303 6.20513C0.505225 6.20473 0.399411 6.17509 0.306191 6.11917C0.212971 6.06325 0.135617 5.983 0.0818788 5.88648C0.0281405 5.78996 -9.52564e-05 5.68055 2.41439e-07 5.56922C9.57393e-05 5.45788 0.0285192 5.34852 0.082423 5.2521L1.58197 2.56774C1.05796 2.10362 0.576571 1.59051 0.143943 1.03495C0.0928154 0.970569 0.0546078 0.896323 0.0315467 0.816538C0.00848551 0.736753 0.00103221 0.653025 0.0096212 0.570235C0.0182102 0.487444 0.0426696 0.407248 0.0815739 0.33432C0.120478 0.261391 0.173049 0.197189 0.236222 0.145456C0.298081 0.0922086 0.369574 0.0521939 0.446542 0.0277385C0.52351 0.00328312 0.604418 -0.00512475 0.684561 0.0030043C0.764704 0.0111334 0.842482 0.0356368 0.913373 0.0750899C0.984263 0.114543 1.04685 0.168158 1.0975 0.232818C1.57886 0.85261 2.12856 1.41232 2.73546 1.90062H2.74315C4.24481 3.11038 6.09865 3.75977 8.00308 3.74314C10.2562 3.74314 11.9865 2.92512 13.2553 1.90856H13.2707C13.8776 1.42026 14.4273 0.860551 14.9087 0.24076C14.9588 0.175517 15.0209 0.121223 15.0915 0.0810442C15.1622 0.0408654 15.2398 0.0156047 15.32 0.00673434C15.4001 -0.00213604 15.4812 0.00556145 15.5585 0.0293781C15.6357 0.0531948 15.7076 0.0926542 15.7699 0.145456C15.8331 0.197189 15.8857 0.261391 15.9246 0.33432C15.9635 0.407248 15.988 0.487444 15.9965 0.570235C16.0051 0.653025 15.9977 0.736753 15.9746 0.816538C15.9516 0.896323 15.9133 0.970569 15.8622 1.03495C15.4296 1.59051 14.9482 2.10362 14.4242 2.56774L15.9161 5.23622Z" fill="#ABABAB"/>
</svg>
